<svg width="24" height="24" viewBox="0 0 24 24" fill="none" xmlns="http://www.w3.org/2000/svg">
<path d="M4.43105 12.8222L17.4311 21.8222C17.5811 21.926 17.7566 21.9868 17.9387 21.998C18.1208 22.0091 18.3025 21.9703 18.4641 21.8856C18.6257 21.801 18.7611 21.6737 18.8556 21.5176C18.95 21.3616 19 21.1826 19.0001 21.0002V3.00017C19.0002 2.81765 18.9503 2.63858 18.8559 2.48236C18.7616 2.32614 18.6262 2.19873 18.4646 2.11395C18.3029 2.02916 18.1212 1.99023 17.939 2.00138C17.7568 2.01252 17.5811 2.07332 17.4311 2.17717L4.43105 11.1772C4.29861 11.2696 4.19045 11.3927 4.11576 11.5359C4.04108 11.6791 4.00208 11.8382 4.00208 11.9997C4.00208 12.1612 4.04108 12.3203 4.11576 12.4635C4.19045 12.6067 4.29861 12.7297 4.43105 12.8222Z" fill="black"/>
</svg>
