<svg width="16" height="16" viewBox="0 0 16 16" fill="none" xmlns="http://www.w3.org/2000/svg">
<path d="M7.75021 0.75C2.50062 0.75 0.750244 2.50038 0.750244 7.75C0.750244 12.9996 2.50062 14.75 7.75021 14.75C12.9998 14.75 14.7502 12.9996 14.7502 7.75" stroke="#55565A" stroke-width="1.5" stroke-linecap="round" stroke-linejoin="round"/>
<path fill-rule="evenodd" clip-rule="evenodd" d="M13.4472 1.92541C12.6958 1.26022 11.5478 1.32984 10.8826 2.0813C10.8826 2.0813 7.57629 5.8159 6.42981 7.11219C5.28183 8.40776 6.12334 10.1975 6.12334 10.1975C6.12334 10.1975 8.01824 10.7976 9.14883 9.52019C10.2802 8.24278 13.6031 4.49006 13.6031 4.49006C14.2683 3.7386 14.1979 2.5906 13.4472 1.92541Z" stroke="#55565A" stroke-width="1.5" stroke-linecap="round" stroke-linejoin="round"/>
<path d="M10.0271 3.05859L12.7476 5.46735" stroke="#55565A" stroke-width="1.5" stroke-linecap="round" stroke-linejoin="round"/>
</svg>
