<svg width="16" height="16" viewBox="0 0 16 16" fill="none" xmlns="http://www.w3.org/2000/svg">
<path d="M7.04609 0C3.16098 0 0 3.16098 0 7.04609C0 10.9314 3.16098 14.0922 7.04609 14.0922C10.9314 14.0922 14.0922 10.9314 14.0922 7.04609C14.0922 3.16098 10.9314 0 7.04609 0ZM7.04609 12.7914C3.87817 12.7914 1.30082 10.214 1.30082 7.04612C1.30082 3.8782 3.87817 1.30082 7.04609 1.30082C10.214 1.30082 12.7914 3.87817 12.7914 7.04609C12.7914 10.214 10.214 12.7914 7.04609 12.7914Z" fill="white"/>
<path d="M15.8095 14.8893L12.0805 11.1603C11.8264 10.9062 11.4149 10.9062 11.1608 11.1603C10.9067 11.4142 10.9067 11.8261 11.1608 12.08L14.8898 15.809C15.0168 15.936 15.1831 15.9996 15.3496 15.9996C15.5159 15.9996 15.6824 15.936 15.8095 15.809C16.0636 15.5551 16.0636 15.1432 15.8095 14.8893Z" fill="white"/>
</svg>
