<svg width="12" height="14" viewBox="0 0 12 14" fill="none" xmlns="http://www.w3.org/2000/svg">
<path d="M10.5466 1.74256H7.87566C7.78135 0.765649 6.9762 0 5.99997 0C5.02373 0 4.21859 0.765649 4.12428 1.74256H1.45339C0.651993 1.74256 0 2.41176 0 3.23429C0 4.032 0.61323 4.6854 1.38125 4.72415V12.1985C1.38125 13.1918 2.16863 14 3.13648 14H8.86352C9.83137 14 10.6188 13.1918 10.6188 12.1985V4.72418C11.3868 4.68543 12 4.03203 12 3.23432C12 2.41176 11.348 1.74256 10.5466 1.74256ZM5.99997 0.916031C6.48322 0.916031 6.88672 1.27246 6.97457 1.74256H5.02537C5.11322 1.27246 5.51672 0.916031 5.99997 0.916031ZM9.72623 12.1985C9.72623 12.6868 9.33922 13.084 8.86349 13.084H3.13645C2.66072 13.084 2.27371 12.6868 2.27371 12.1985V4.72605C2.63796 4.72605 9.44135 4.72605 9.72623 4.72605V12.1985ZM10.5466 3.81002C10.4536 3.81002 1.53249 3.81002 1.45339 3.81002C1.14411 3.81002 0.89249 3.55176 0.89249 3.23432C0.89249 2.91689 1.14411 2.65863 1.45339 2.65863H10.5466C10.8559 2.65863 11.1075 2.91689 11.1075 3.23432C11.1075 3.55176 10.8559 3.81002 10.5466 3.81002Z" fill="#55565A"/>
<path d="M6.00093 11.9798C6.24738 11.9798 6.44718 11.7747 6.44718 11.5218V6.21778C6.44718 5.96483 6.24741 5.75977 6.00093 5.75977C5.75449 5.75977 5.55469 5.96483 5.55469 6.21778V11.5218C5.55469 11.7747 5.75449 11.9798 6.00093 11.9798Z" fill="#55565A"/>
<path d="M8.30342 11.9798C8.54987 11.9798 8.74967 11.7747 8.74967 11.5218V6.21778C8.74967 5.96483 8.54987 5.75977 8.30342 5.75977C8.05698 5.75977 7.85718 5.96483 7.85718 6.21778V11.5218C7.85718 11.7747 8.05698 11.9798 8.30342 11.9798Z" fill="#55565A"/>
<path d="M3.69649 11.9798C3.94294 11.9798 4.14273 11.7747 4.14273 11.5218V6.21778C4.14273 5.96483 3.94294 5.75977 3.69649 5.75977C3.45004 5.75977 3.25024 5.96483 3.25024 6.21778V11.5218C3.25024 11.7747 3.45004 11.9798 3.69649 11.9798Z" fill="#55565A"/>
</svg>
