<svg width="20" height="20" viewBox="0 0 20 20" fill="none" xmlns="http://www.w3.org/2000/svg">
<path d="M7.50001 8.50007H10C10.2652 8.50007 10.5196 8.39471 10.7071 8.20718C10.8947 8.01964 11 7.76528 11 7.50007C11 7.23485 10.8947 6.9805 10.7071 6.79296C10.5196 6.60543 10.2652 6.50007 10 6.50007H9.00001V6.00007C9.00001 5.73485 8.89465 5.4805 8.70711 5.29296C8.51958 5.10543 8.26522 5.00007 8.00001 5.00007C7.73479 5.00007 7.48044 5.10543 7.2929 5.29296C7.10537 5.4805 7.00001 5.73485 7.00001 6.00007V6.55007C6.39243 6.67344 5.85237 7.01817 5.48466 7.51733C5.11696 8.01649 4.94785 8.63448 5.01015 9.25132C5.07246 9.86815 5.36174 10.4398 5.82184 10.8554C6.28194 11.2709 6.88003 11.5007 7.50001 11.5001H8.50001C8.63262 11.5001 8.75979 11.5527 8.85356 11.6465C8.94733 11.7403 9.00001 11.8675 9.00001 12.0001C9.00001 12.1327 8.94733 12.2599 8.85356 12.3536C8.75979 12.4474 8.63262 12.5001 8.50001 12.5001H6.00001C5.73479 12.5001 5.48044 12.6054 5.2929 12.793C5.10537 12.9805 5.00001 13.2349 5.00001 13.5001C5.00001 13.7653 5.10537 14.0196 5.2929 14.2072C5.48044 14.3947 5.73479 14.5001 6.00001 14.5001H7.00001V15.0001C7.00001 15.2653 7.10537 15.5196 7.2929 15.7072C7.48044 15.8947 7.73479 16.0001 8.00001 16.0001C8.26522 16.0001 8.51958 15.8947 8.70711 15.7072C8.89465 15.5196 9.00001 15.2653 9.00001 15.0001V14.4501C9.60758 14.3267 10.1476 13.982 10.5154 13.4828C10.8831 12.9836 11.0522 12.3657 10.9899 11.7488C10.9276 11.132 10.6383 10.5603 10.1782 10.1448C9.71807 9.72921 9.11998 9.49945 8.50001 9.50007H7.50001C7.3674 9.50007 7.24022 9.44739 7.14645 9.35362C7.05269 9.25985 7.00001 9.13268 7.00001 9.00007C7.00001 8.86746 7.05269 8.74028 7.14645 8.64651C7.24022 8.55275 7.3674 8.50007 7.50001 8.50007ZM19 10.0001H16V1.00007C16.0007 0.823858 15.9548 0.650592 15.867 0.497814C15.7792 0.345037 15.6526 0.218173 15.5 0.130068C15.348 0.0423001 15.1755 -0.00390625 15 -0.00390625C14.8245 -0.00390625 14.652 0.0423001 14.5 0.130068L11.5 1.85007L8.50001 0.130068C8.34799 0.0423001 8.17554 -0.00390625 8.00001 -0.00390625C7.82447 -0.00390625 7.65203 0.0423001 7.50001 0.130068L4.50001 1.85007L1.50001 0.130068C1.34799 0.0423001 1.17554 -0.00390625 1.00001 -0.00390625C0.824471 -0.00390625 0.652027 0.0423001 0.500008 0.130068C0.347404 0.218173 0.220789 0.345037 0.132986 0.497814C0.0451828 0.650592 -0.000691685 0.823858 7.88288e-06 1.00007V17.0001C7.88288e-06 17.7957 0.316078 18.5588 0.878688 19.1214C1.4413 19.684 2.20436 20.0001 3.00001 20.0001H17C17.7957 20.0001 18.5587 19.684 19.1213 19.1214C19.6839 18.5588 20 17.7957 20 17.0001V11.0001C20 10.7349 19.8947 10.4805 19.7071 10.293C19.5196 10.1054 19.2652 10.0001 19 10.0001ZM3.00001 18.0001C2.73479 18.0001 2.48044 17.8947 2.2929 17.7072C2.10536 17.5196 2.00001 17.2653 2.00001 17.0001V2.73007L4.00001 3.87007C4.15435 3.95068 4.32589 3.99278 4.50001 3.99278C4.67413 3.99278 4.84567 3.95068 5.00001 3.87007L8.00001 2.15007L11 3.87007C11.1543 3.95068 11.3259 3.99278 11.5 3.99278C11.6741 3.99278 11.8457 3.95068 12 3.87007L14 2.73007V17.0001C14.0027 17.3412 14.0636 17.6794 14.18 18.0001H3.00001ZM18 17.0001C18 17.2653 17.8947 17.5196 17.7071 17.7072C17.5196 17.8947 17.2652 18.0001 17 18.0001C16.7348 18.0001 16.4804 17.8947 16.2929 17.7072C16.1054 17.5196 16 17.2653 16 17.0001V12.0001H18V17.0001Z" fill="white"/>
</svg>
